General
Complete name            :WWE.Monday.Night.Raw.2011.10.24.1080p.H.264.HD.MM.By.Snaw90.mp4
Format                   : x264
File size                : 7.57 GiB
Duration                 : 1h 28mn


Video

Format                   : AVC
Duration                 : 1h 28mn
Bit rate                 : 12.0 Mbps
Width                    : 1920 pixels
Height                   : 1080 pixels
Display aspect ratio     : 16:9
Stream size              : 7.47 GiB (99%)


Audio

Format                   : AAC
Duration                 : 1h 28mn
Bit rate                 : 152 Kbps
Channel(s)               : 2 channels
Stream size              : 96.7 MiB 


